<mxfile host="app.diagrams.net" modified="2020-09-14T01:57:59.951Z" agent="5.0 (Windows NT 10.0; Win64; x64) AppleWebKit/537.36 (KHTML, like Gecko) Chrome/85.0.4183.102 Safari/537.36" etag="0VUmZs7pdvWQLj3_8K8n" version="13.6.10" type="github">
  <diagram id="C5RBs43oDa-KdzZeNtuy" name="Page-1">
    <mxGraphModel dx="2062" dy="1123" grid="1" gridSize="10" guides="1" tooltips="1" connect="1" arrows="1" fold="1" page="1" pageScale="1" pageWidth="827" pageHeight="1169" math="0" shadow="0">
      <root>
        <mxCell id="WIyWlLk6GJQsqaUBKTNV-0" />
        <mxCell id="WIyWlLk6GJQsqaUBKTNV-1" parent="WIyWlLk6GJQsqaUBKTNV-0" />
        <mxCell id="7Na7xx4UzMiA5GKwx0ft-30" style="edgeStyle=orthogonalEdgeStyle;rounded=0;orthogonalLoop=1;jettySize=auto;html=1;exitX=0.5;exitY=1;exitDx=0;exitDy=0;entryX=0.5;entryY=0;entryDx=0;entryDy=0;" edge="1" parent="WIyWlLk6GJQsqaUBKTNV-1" source="7Na7xx4UzMiA5GKwx0ft-0" target="7Na7xx4UzMiA5GKwx0ft-3">
          <mxGeometry relative="1" as="geometry" />
        </mxCell>
        <mxCell id="7Na7xx4UzMiA5GKwx0ft-0" value="Run Launcher.vi" style="ellipse;whiteSpace=wrap;html=1;aspect=fixed;" vertex="1" parent="WIyWlLk6GJQsqaUBKTNV-1">
          <mxGeometry x="374" y="40" width="80" height="80" as="geometry" />
        </mxCell>
        <mxCell id="7Na7xx4UzMiA5GKwx0ft-31" style="edgeStyle=orthogonalEdgeStyle;rounded=0;orthogonalLoop=1;jettySize=auto;html=1;exitX=0.5;exitY=1;exitDx=0;exitDy=0;entryX=0.5;entryY=0;entryDx=0;entryDy=0;" edge="1" parent="WIyWlLk6GJQsqaUBKTNV-1" source="7Na7xx4UzMiA5GKwx0ft-3" target="7Na7xx4UzMiA5GKwx0ft-10">
          <mxGeometry relative="1" as="geometry" />
        </mxCell>
        <mxCell id="7Na7xx4UzMiA5GKwx0ft-3" value="Load JIRA Tasks for the Day" style="rounded=0;whiteSpace=wrap;html=1;" vertex="1" parent="WIyWlLk6GJQsqaUBKTNV-1">
          <mxGeometry x="354" y="140" width="120" height="60" as="geometry" />
        </mxCell>
        <mxCell id="7Na7xx4UzMiA5GKwx0ft-4" value="Alpha Test" style="rounded=0;whiteSpace=wrap;html=1;" vertex="1" parent="WIyWlLk6GJQsqaUBKTNV-1">
          <mxGeometry x="610" y="310" width="120" height="60" as="geometry" />
        </mxCell>
        <mxCell id="7Na7xx4UzMiA5GKwx0ft-5" value="Assign JIRA Task" style="rounded=0;whiteSpace=wrap;html=1;" vertex="1" parent="WIyWlLk6GJQsqaUBKTNV-1">
          <mxGeometry x="354" y="400" width="120" height="60" as="geometry" />
        </mxCell>
        <mxCell id="7Na7xx4UzMiA5GKwx0ft-6" value="Architect JIRA Task" style="rounded=0;whiteSpace=wrap;html=1;" vertex="1" parent="WIyWlLk6GJQsqaUBKTNV-1">
          <mxGeometry x="610" y="20" width="120" height="60" as="geometry" />
        </mxCell>
        <mxCell id="7Na7xx4UzMiA5GKwx0ft-7" value="Execute JIRA Task" style="rounded=0;whiteSpace=wrap;html=1;" vertex="1" parent="WIyWlLk6GJQsqaUBKTNV-1">
          <mxGeometry x="610" y="110" width="120" height="60" as="geometry" />
        </mxCell>
        <mxCell id="7Na7xx4UzMiA5GKwx0ft-8" value="Review JIRA Task" style="rounded=0;whiteSpace=wrap;html=1;" vertex="1" parent="WIyWlLk6GJQsqaUBKTNV-1">
          <mxGeometry x="610" y="210" width="120" height="60" as="geometry" />
        </mxCell>
        <mxCell id="7Na7xx4UzMiA5GKwx0ft-9" value="Perform Administrative Task" style="rounded=0;whiteSpace=wrap;html=1;" vertex="1" parent="WIyWlLk6GJQsqaUBKTNV-1">
          <mxGeometry x="120" y="260" width="120" height="60" as="geometry" />
        </mxCell>
        <mxCell id="7Na7xx4UzMiA5GKwx0ft-10" value="ATE Supervisor" style="rhombus;whiteSpace=wrap;html=1;" vertex="1" parent="WIyWlLk6GJQsqaUBKTNV-1">
          <mxGeometry x="296" y="220" width="236" height="140" as="geometry" />
        </mxCell>
        <mxCell id="7Na7xx4UzMiA5GKwx0ft-12" style="edgeStyle=orthogonalEdgeStyle;rounded=0;orthogonalLoop=1;jettySize=auto;html=1;exitX=0.5;exitY=1;exitDx=0;exitDy=0;" edge="1" parent="WIyWlLk6GJQsqaUBKTNV-1" source="7Na7xx4UzMiA5GKwx0ft-10" target="7Na7xx4UzMiA5GKwx0ft-10">
          <mxGeometry relative="1" as="geometry" />
        </mxCell>
        <mxCell id="7Na7xx4UzMiA5GKwx0ft-13" value="Submit For Validation" style="rounded=0;whiteSpace=wrap;html=1;" vertex="1" parent="WIyWlLk6GJQsqaUBKTNV-1">
          <mxGeometry x="610" y="410" width="120" height="60" as="geometry" />
        </mxCell>
        <mxCell id="7Na7xx4UzMiA5GKwx0ft-14" value="" style="endArrow=classic;html=1;exitX=0;exitY=0.5;exitDx=0;exitDy=0;entryX=1;entryY=0.5;entryDx=0;entryDy=0;" edge="1" parent="WIyWlLk6GJQsqaUBKTNV-1" source="7Na7xx4UzMiA5GKwx0ft-10" target="7Na7xx4UzMiA5GKwx0ft-9">
          <mxGeometry relative="1" as="geometry">
            <mxPoint x="360" y="550" as="sourcePoint" />
            <mxPoint x="460" y="550" as="targetPoint" />
          </mxGeometry>
        </mxCell>
        <mxCell id="7Na7xx4UzMiA5GKwx0ft-15" value="" style="shape=message;html=1;outlineConnect=0;" vertex="1" parent="7Na7xx4UzMiA5GKwx0ft-14">
          <mxGeometry width="20" height="14" relative="1" as="geometry">
            <mxPoint x="-10" y="-7" as="offset" />
          </mxGeometry>
        </mxCell>
        <mxCell id="7Na7xx4UzMiA5GKwx0ft-16" value="" style="endArrow=classic;html=1;exitX=1;exitY=0.5;exitDx=0;exitDy=0;entryX=0;entryY=0.25;entryDx=0;entryDy=0;" edge="1" parent="WIyWlLk6GJQsqaUBKTNV-1" source="7Na7xx4UzMiA5GKwx0ft-10" target="7Na7xx4UzMiA5GKwx0ft-6">
          <mxGeometry relative="1" as="geometry">
            <mxPoint x="360" y="550" as="sourcePoint" />
            <mxPoint x="460" y="550" as="targetPoint" />
          </mxGeometry>
        </mxCell>
        <mxCell id="7Na7xx4UzMiA5GKwx0ft-17" value="" style="shape=message;html=1;outlineConnect=0;" vertex="1" parent="7Na7xx4UzMiA5GKwx0ft-16">
          <mxGeometry width="20" height="14" relative="1" as="geometry">
            <mxPoint x="-10" y="-7" as="offset" />
          </mxGeometry>
        </mxCell>
        <mxCell id="7Na7xx4UzMiA5GKwx0ft-18" value="" style="endArrow=classic;html=1;exitX=0.5;exitY=1;exitDx=0;exitDy=0;entryX=0.5;entryY=0;entryDx=0;entryDy=0;" edge="1" parent="WIyWlLk6GJQsqaUBKTNV-1" source="7Na7xx4UzMiA5GKwx0ft-6" target="7Na7xx4UzMiA5GKwx0ft-7">
          <mxGeometry relative="1" as="geometry">
            <mxPoint x="510" y="60" as="sourcePoint" />
            <mxPoint x="610" y="60" as="targetPoint" />
          </mxGeometry>
        </mxCell>
        <mxCell id="7Na7xx4UzMiA5GKwx0ft-19" value="" style="shape=message;html=1;outlineConnect=0;" vertex="1" parent="7Na7xx4UzMiA5GKwx0ft-18">
          <mxGeometry width="20" height="14" relative="1" as="geometry">
            <mxPoint x="-10" y="-7" as="offset" />
          </mxGeometry>
        </mxCell>
        <mxCell id="7Na7xx4UzMiA5GKwx0ft-20" value="" style="endArrow=classic;html=1;" edge="1" parent="WIyWlLk6GJQsqaUBKTNV-1" source="7Na7xx4UzMiA5GKwx0ft-7">
          <mxGeometry relative="1" as="geometry">
            <mxPoint x="670" y="170" as="sourcePoint" />
            <mxPoint x="670" y="210" as="targetPoint" />
          </mxGeometry>
        </mxCell>
        <mxCell id="7Na7xx4UzMiA5GKwx0ft-21" value="" style="shape=message;html=1;outlineConnect=0;" vertex="1" parent="7Na7xx4UzMiA5GKwx0ft-20">
          <mxGeometry width="20" height="14" relative="1" as="geometry">
            <mxPoint x="-10" y="-7" as="offset" />
          </mxGeometry>
        </mxCell>
        <mxCell id="7Na7xx4UzMiA5GKwx0ft-22" value="" style="endArrow=classic;html=1;exitX=0.5;exitY=1;exitDx=0;exitDy=0;" edge="1" parent="WIyWlLk6GJQsqaUBKTNV-1" source="7Na7xx4UzMiA5GKwx0ft-8" target="7Na7xx4UzMiA5GKwx0ft-4">
          <mxGeometry relative="1" as="geometry">
            <mxPoint x="720" y="290" as="sourcePoint" />
            <mxPoint x="820" y="290" as="targetPoint" />
          </mxGeometry>
        </mxCell>
        <mxCell id="7Na7xx4UzMiA5GKwx0ft-23" value="" style="shape=message;html=1;outlineConnect=0;" vertex="1" parent="7Na7xx4UzMiA5GKwx0ft-22">
          <mxGeometry width="20" height="14" relative="1" as="geometry">
            <mxPoint x="-10" y="-7" as="offset" />
          </mxGeometry>
        </mxCell>
        <mxCell id="7Na7xx4UzMiA5GKwx0ft-24" value="" style="endArrow=classic;html=1;exitX=0.5;exitY=1;exitDx=0;exitDy=0;entryX=0.5;entryY=0;entryDx=0;entryDy=0;" edge="1" parent="WIyWlLk6GJQsqaUBKTNV-1" source="7Na7xx4UzMiA5GKwx0ft-4" target="7Na7xx4UzMiA5GKwx0ft-13">
          <mxGeometry relative="1" as="geometry">
            <mxPoint x="710" y="390" as="sourcePoint" />
            <mxPoint x="810" y="390" as="targetPoint" />
          </mxGeometry>
        </mxCell>
        <mxCell id="7Na7xx4UzMiA5GKwx0ft-25" value="" style="shape=message;html=1;outlineConnect=0;" vertex="1" parent="7Na7xx4UzMiA5GKwx0ft-24">
          <mxGeometry width="20" height="14" relative="1" as="geometry">
            <mxPoint x="-10" y="-7" as="offset" />
          </mxGeometry>
        </mxCell>
        <mxCell id="7Na7xx4UzMiA5GKwx0ft-26" value="" style="endArrow=classic;html=1;exitX=0.5;exitY=1;exitDx=0;exitDy=0;entryX=0.5;entryY=0;entryDx=0;entryDy=0;" edge="1" parent="WIyWlLk6GJQsqaUBKTNV-1" source="7Na7xx4UzMiA5GKwx0ft-10" target="7Na7xx4UzMiA5GKwx0ft-5">
          <mxGeometry relative="1" as="geometry">
            <mxPoint x="230" y="400" as="sourcePoint" />
            <mxPoint x="330" y="400" as="targetPoint" />
          </mxGeometry>
        </mxCell>
        <mxCell id="7Na7xx4UzMiA5GKwx0ft-27" value="" style="shape=message;html=1;outlineConnect=0;" vertex="1" parent="7Na7xx4UzMiA5GKwx0ft-26">
          <mxGeometry width="20" height="14" relative="1" as="geometry">
            <mxPoint x="-10" y="-7" as="offset" />
          </mxGeometry>
        </mxCell>
      </root>
    </mxGraphModel>
  </diagram>
</mxfile>
